<svg xmlns="http://www.w3.org/2000/svg" width="491" height="491" fill="none"><g clip-path="url(#a)"><path fill="#049BA3" d="M245.5 491C381.086 491 491 381.086 491 245.5S381.086 0 245.5 0 0 109.914 0 245.5 109.914 491 245.5 491Z"/><path fill="#fff" d="M246.129 422.731c-23.647 0-46.783-5.695-67.562-16.968-36.962-20.112-61.984-54.325-66.933-91.523a114.782 114.782 0 0 1-.825-20.151c.943-19.09 6.167-37.394 15.241-53.97-.629-1.179-1.257-2.396-1.886-3.614-18.186-36.138-6.009-84.02 15.438-112.616 24-32.052 60.884-52.164 101.106-55.149 52.635-3.928 97.415 13.395 136.93 52.91l-29.263 29.264c-30.953-30.953-64.223-43.954-104.603-40.93-28.321 2.121-54.206 16.223-71.057 38.691-10.488 13.984-17.637 35.352-15.87 53.656a87.256 87.256 0 0 1 2.907-2.435c37.748-30.835 90.816-44.583 141.84-36.805 26.121 4.006 47.922 15.672 61.395 32.838 12.255 15.594 16.812 33.427 13.159 51.496-4.518 22.547-22.194 44.386-47.254 58.409-33.702 18.855-82.135 20.504-123.339 4.164-18.815-7.463-36.02-18.58-50.514-32.328-1.572 5.657-2.593 11.784-2.907 18.344-.197 4.282-.039 8.524.51 12.648 3.221 24.158 20.269 46.822 45.683 60.609 27.693 15.084 61.748 15.909 93.408 2.279 21.8-9.428 40.89-25.611 53.696-45.644l34.841 22.311c-17.205 26.907-42.854 48.668-72.157 61.316-20.229 8.721-41.323 13.081-61.984 13.081v.117ZM176.643 240.59c11.941 13.434 27.378 24.393 44.15 31.071 29.657 11.744 64.969 11.037 87.87-1.807 14.258-7.974 24.785-19.915 26.906-30.403.786-3.849 1.061-9.899-5.145-17.833-9.388-11.981-26.004-16.105-35.117-17.48-39.083-6.01-80.995 4.714-109.434 27.928-3.024 2.475-6.167 5.303-9.27 8.563l.04-.039Z"/></g><defs><clipPath id="a"><path fill="#fff" d="M0 0h491v491H0z"/></clipPath></defs></svg>