<svg width="491" height="491" viewBox="0 0 491 491" fill="none" xmlns="http://www.w3.org/2000/svg">
<g clip-path="url(#clip0_492_3053)">
<path d="M245.5 491C381.086 491 491 381.086 491 245.5C491 109.914 381.086 0 245.5 0C109.914 0 0 109.914 0 245.5C0 381.086 109.914 491 245.5 491Z" fill="#049BA3"/>
<path d="M246.129 422.731C222.482 422.731 199.346 417.036 178.567 405.763C141.605 385.651 116.583 351.438 111.634 314.24C110.77 307.641 110.495 300.846 110.809 294.089C111.752 274.999 116.976 256.695 126.05 240.119C125.421 238.94 124.793 237.723 124.164 236.505C105.978 200.367 118.155 152.485 139.602 123.889C163.602 91.8367 200.486 71.7254 240.708 68.7401C293.343 64.8121 338.123 82.1346 377.638 121.65L348.375 150.914C317.422 119.961 284.152 106.96 243.772 109.984C215.451 112.105 189.566 126.207 172.715 148.675C162.227 162.659 155.078 184.027 156.845 202.331C157.788 201.506 158.77 200.682 159.752 199.896C197.5 169.061 250.568 155.313 301.592 163.091C327.713 167.097 349.514 178.763 362.987 195.929C375.242 211.523 379.799 229.356 376.146 247.425C371.628 269.972 353.952 291.811 328.892 305.834C295.19 324.689 246.757 326.338 205.553 309.998C186.738 302.535 169.533 291.418 155.039 277.67C153.467 283.327 152.446 289.454 152.132 296.014C151.935 300.296 152.093 304.538 152.642 308.662C155.863 332.82 172.911 355.484 198.325 369.271C226.018 384.355 260.073 385.18 291.733 371.55C313.533 362.122 332.623 345.939 345.429 325.906L380.27 348.217C363.065 375.124 337.416 396.885 308.113 409.533C287.884 418.254 266.79 422.614 246.129 422.614V422.731ZM176.643 240.59C188.584 254.024 204.021 264.983 220.793 271.661C250.45 283.405 285.762 282.698 308.663 269.854C322.921 261.88 333.448 249.939 335.569 239.451C336.355 235.602 336.63 229.552 330.424 221.618C321.036 209.637 304.42 205.513 295.307 204.138C256.224 198.128 214.312 208.852 185.873 232.066C182.849 234.541 179.706 237.369 176.603 240.629L176.643 240.59Z" fill="white"/>
</g>
<defs>
<clipPath id="clip0_492_3053">
<rect width="491" height="491" fill="white"/>
</clipPath>
</defs>
</svg>
